<svg width="32" height="32" viewBox="0 0 32 32" fill="none" xmlns="http://www.w3.org/2000/svg">
<path d="M26.1494 6.85655C25.5629 6.26797 24.8667 5.80107 24.1003 5.48251C23.334 5.16396 22.5126 5 21.6831 5C20.8535 5 20.0321 5.16396 19.2658 5.48251C18.4994 5.80107 17.8032 6.26797 17.2167 6.85655L15.9997 8.07749L14.7826 6.85655C13.5981 5.66822 11.9915 5.00062 10.3163 5.00062C8.64114 5.00062 7.03455 5.66822 5.85001 6.85655C4.66547 8.04489 4 9.65662 4 11.3372C4 13.0177 4.66547 14.6295 5.85001 15.8178L7.06705 17.0387L15.9997 26L24.9323 17.0387L26.1494 15.8178C26.7361 15.2295 27.2015 14.531 27.519 13.7622C27.8366 12.9934 28 12.1694 28 11.3372C28 10.505 27.8366 9.68096 27.519 8.91216C27.2015 8.14336 26.7361 7.44486 26.1494 6.85655Z" fill="#1E1E1E" stroke="#1E1E1E" stroke-width="2" stroke-linecap="round" stroke-linejoin="round"/>
</svg>
